<svg xmlns="http://www.w3.org/2000/svg" viewBox="0 0 251.76 121.51"><defs><style>.cls-1{fill:#f1da79;}.cls-2{fill:#271924;}.cls-3{fill:#01b3bb;}.cls-4{fill:none;stroke:#271924;stroke-linecap:round;stroke-miterlimit:10;}</style></defs><title>Asset 2</title><g id="Layer_2" data-name="Layer 2"><g id="Layer_1-2" data-name="Layer 1"><path class="cls-1" d="M2.76,50s47,95,154,66,91-89,0-89S-16.24-47,2.76,50Z"/><path class="cls-2" d="M43.41,111.34V24a1.21,1.21,0,0,1,1.29-1.36h4.91c.86,0,1.29.45,1.29,1.36v87.36a1.14,1.14,0,0,1-1.29,1.3H44.7A1.14,1.14,0,0,1,43.41,111.34Z"/><path class="cls-2" d="M133,110.55,101.78,23.19a1.66,1.66,0,0,0-1.61-1.36H95.38a1.66,1.66,0,0,0-1.55,1.36L62.3,110.55c-.26.86.06,1.29,1,1.29h5.17a1.76,1.76,0,0,0,1.68-1.3L74,99h.06L97.52,34h.38l25,70.64h0l2.23,5.87a1.55,1.55,0,0,0,1.75,1.3h5.17Q133.38,111.84,133,110.55Z"/><path class="cls-2" d="M142.71,111.34V24A1.21,1.21,0,0,1,144,22.62h4.91A2.29,2.29,0,0,1,151.17,24L196,98h.39V24a1.21,1.21,0,0,1,1.28-1.36h4.87c.85,0,1.3.45,1.34,1.36v87.36c0,.87-.45,1.3-1.35,1.3h-5.17a2.32,2.32,0,0,1-2.19-1.3L150.72,37.23h-.52v74.11a1.14,1.14,0,0,1-1.29,1.3H144A1.14,1.14,0,0,1,142.71,111.34Z"/><path class="cls-3" d="M240.68,71.41c0,6.26-7.49,9.34-13.75,9.34s-13.25-5.58-13.25-11.84,7-10.83,13.25-10.83S240.68,65.15,240.68,71.41Z"/><line class="cls-4" x1="227.26" y1="54.25" x2="227.26" y2="86.25"/><line class="cls-4" x1="251.26" y1="70.25" x2="219.26" y2="70.25"/></g></g></svg>