<?xml version="1.0" encoding="UTF-8"?>
<svg width="1353px" height="608px" viewBox="0 0 1353 608" version="1.1" xmlns="http://www.w3.org/2000/svg" xmlns:xlink="http://www.w3.org/1999/xlink">
    <!-- Generator: Sketch 50.2 (55047) - http://www.bohemiancoding.com/sketch -->
    <title>2</title>
    <desc>Created with Sketch.</desc>
    <defs></defs>
    <g id="Page-1" stroke="none" stroke-width="1" fill="none" fill-rule="evenodd">
        <g id="Artboard-13-Copy" transform="translate(0.000000, -107.000000)" stroke="#0B21A8">
            <g id="carbon-pattern">
                <g id="2" transform="translate(0.000000, 108.000000)">
                    <g id="Group" transform="translate(27.450980, 0.032891)">
                        <path d="M58.7096774,162.996837 C82.7868438,175.801392 104.756483,172.073371 125.69007,156.364326 L109.919039,129.798861 C99.9924099,138.937381 86.9753321,143.905123 72.8690702,136.404807 C56.1239722,127.505376 51.3244782,109.768501 62.8538899,88.0822264 L74.5958254,65.99747 C86.1075269,44.3023403 103.516762,38.3693865 120.26186,47.2776724 C134.368121,54.7779886 137.237192,66.1657179 134.545225,79.4041746 L166.317521,79.0676787 C168.469323,51.8823529 158.498419,33.42821 134.438963,20.6236559 C99.0803289,1.82416192 62.7122075,15.3548387 37.9177736,61.8975332 C13.1233397,108.440228 23.3510436,144.197343 58.7096774,162.996837 Z" id="Shape" opacity="0.3"></path>
                        <path d="M35.2612271,150.528779 C59.3383934,163.333333 81.3080329,159.605313 102.241619,143.896268 L86.4705882,117.330803 C76.5439595,126.469323 63.5268817,131.437065 49.4206199,123.936749 C32.6755218,115.037318 27.8760278,97.3004428 39.4054396,75.6141682 L51.1473751,53.5294118 C62.6590765,31.8342821 80.0683112,25.9013283 96.8134092,34.8096142 C110.919671,42.3099304 113.788741,53.6976597 111.096774,66.9361164 L142.86907,66.626186 C145.020873,39.4408602 135.049968,20.9867173 110.990512,8.18216319 C75.6318786,-10.6173308 39.2637571,2.91334598 14.4693232,49.4560405 C-10.3251107,95.998735 -0.10626186,131.729285 35.2612271,150.528779 Z" id="Shape" opacity="0.1"></path>
                        <path d="M77.030993,172.746363 C101.108159,185.550917 123.077799,181.822897 144.011385,166.113852 L128.240354,139.548387 C118.313725,148.686907 105.296648,153.654649 91.1903858,146.154333 C74.4452878,137.254902 69.6457938,119.518027 81.1752056,97.8317521 L92.917141,75.7469956 C104.428843,54.0518659 121.838077,48.1189121 138.583175,57.027198 C152.689437,64.5275142 155.558507,75.9152435 152.86654,89.1537002 L184.638836,88.8437698 C186.790639,61.658444 176.819734,43.2043011 152.760278,30.399747 C117.401645,11.600253 81.0335231,25.1309298 56.2390892,71.6736243 C31.4446553,118.216319 41.6723593,153.938014 77.030993,172.746363 Z" id="Shape"></path>
                    </g>
                    <g id="Group" transform="translate(0.885515, 416.225174)" stroke-width="2">
                        <polygon id="Shape" points="46.7937381 64.046148 166.656762 15.6183681 215.084541 135.481392 95.221518 183.909171"></polygon>
                        <polygon id="Shape" opacity="0.3" points="24.4402277 56.0768627 144.303163 7.64908286 192.730942 127.512106 72.867919 175.939886"></polygon>
                        <polygon id="Shape" opacity="0.1" points="0.272118912 48.8437065 120.135054 0.415926629 168.562922 120.27895 48.6998102 168.706641"></polygon>
                    </g>
                    <g id="Group" transform="translate(443.643264, 62.904491)" stroke-width="2">
                        <polygon id="Shape" points="144.852625 163.616698 0.132827324 135.953194 97.3181531 24.1568627 144.852625 163.616698"></polygon>
                        <polygon id="Shape" opacity="0.3" points="169.478811 153.442125 24.7678684 125.787476 121.953194 13.9911448"></polygon>
                        <polygon id="Shape" opacity="0.1" points="198.922201 139.557242 54.2112587 111.902593 151.396584 0.10626186"></polygon>
                    </g>
                    <g id="Group" transform="translate(368.374447, 425.080329)">
                        <path d="M130.896901,161.721695 C155.40797,149.767236 165.325743,129.772296 164.900696,103.640734 L134.111322,100.771664 C135.669829,114.178368 132.039216,127.629349 117.676154,134.633776 C100.638836,142.948767 83.4598355,136.404807 72.6919671,114.328906 L61.7292853,91.8456673 C50.9614168,69.7609108 56.4161923,52.2099937 73.426945,43.8950032 C87.7900063,36.8905756 98.6907021,41.2384567 107.811512,51.2270715 L126.239089,25.3434535 C105.509171,7.63314358 84.7172676,4.84376977 60.2061986,16.798229 C24.2099937,34.3580013 13.769766,71.7533207 36.8728653,119.1284 C59.9759646,166.503479 94.9184061,179.272612 130.896901,161.721695 Z" id="Shape" opacity="0.3"></path>
                        <path d="M107.041113,173.366224 C131.552182,161.411765 141.469956,141.416825 141.044908,115.285262 L110.255534,112.416192 C111.814042,125.822897 108.183428,139.273877 93.8203669,146.278305 C76.7830487,154.593295 59.6040481,148.049336 48.8361796,125.973435 L37.9177736,103.472486 C27.1499051,81.3877293 32.6046806,63.8368121 49.6154333,55.5218216 C63.9784946,48.5173941 74.8791904,52.8652751 84,62.8538899 L102.427577,36.970272 C81.6976597,19.259962 60.9057559,16.4705882 36.3946869,28.4250474 C0.398481973,45.9848197 -10.0417457,83.3801392 13.0613536,130.755218 C36.1644529,178.130297 71.0449083,190.917141 107.041113,173.366224 Z" id="Shape" opacity="0.05"></path>
                        <path d="M149.563567,152.618596 C174.074636,140.664137 183.99241,120.669197 183.567362,94.5376344 L152.777989,91.6685642 C154.336496,105.075269 150.705882,118.526249 136.342821,125.530677 C119.305503,133.845667 102.126502,127.301708 91.3586338,105.225806 L80.4225174,82.7337128 C69.654649,60.6489564 75.1094244,43.0980392 92.1201771,34.7830487 C106.483238,27.7786211 117.383934,32.1265022 126.504744,42.115117 L144.932321,16.2314991 C124.202404,-1.47881088 103.4105,-4.26818469 78.8994307,7.68627451 C42.8766603,25.2460468 32.4364326,62.6413662 55.5395319,109.97217 C78.6426312,157.302973 113.567362,170.187223 149.563567,152.618596 Z" id="Shape"></path>
                    </g>
                    <g id="Group" transform="translate(1166.223909, 199.273877)">
                        <path d="M51.3244782,160.570525 C73.9316888,175.819102 96.2112587,174.411132 118.623656,160.977862 L105.71284,132.8716 C94.8829855,140.920936 81.4231499,144.507274 68.1758381,135.528147 C52.457938,124.901961 49.5268817,106.784314 63.2700822,86.4174573 L77.2612271,65.6786844 C90.9955724,45.311828 108.909551,41.2296015 124.627451,51.829222 C137.910183,60.7640734 139.539532,72.3908918 135.475016,85.2751423 L167.105629,88.285895 C172.082226,61.4724858 164.094877,42.0796964 141.496521,26.8311195 C108.28969,4.43643264 70.6552815,14.0885515 41.2118912,57.8241619 C11.7685009,101.559772 18.1176471,138.175838 51.3244782,160.570525 Z" id="Shape" opacity="0.3"></path>
                        <path d="M29.3017078,145.72043 C51.9089184,160.969007 74.1884883,159.561037 96.6008855,146.127767 L83.6900696,118.021505 C72.8602151,126.070841 59.4003795,129.657179 46.1530677,120.678052 C30.4351676,110.051866 27.5041113,91.9342188 41.2473118,71.5673624 L55.2384567,50.8285895 C68.972802,30.4617331 86.8867805,26.3795066 102.604681,36.9791271 C115.887413,45.9139785 117.516762,57.540797 113.452245,70.4250474 L145.082859,73.4358001 C150.059456,46.6223909 142.072106,27.2296015 119.473751,11.9810247 C86.2669197,-10.4136622 48.6325111,-0.761543327 19.1891208,42.974067 C-10.2542694,86.7096774 -3.89626818,123.316888 29.3017078,145.72043 Z" id="Shape" opacity="0.05"></path>
                        <path d="M68.5300443,172.170778 C91.1372549,187.419355 113.416825,186.011385 135.829222,172.578115 L122.927261,144.507274 C112.097407,152.55661 98.6375712,156.142948 85.3902593,147.16382 C69.6723593,136.537634 66.741303,118.419987 80.4845035,98.0531309 L94.4756483,77.314358 C108.209994,56.9475016 126.123972,52.8652751 141.841872,63.4648956 C155.124605,72.399747 156.753953,84.0265655 152.689437,96.9108159 L184.320051,99.9215686 C189.296648,73.1081594 181.309298,53.71537 158.710942,38.4667932 C125.504111,16.0721063 87.8697027,25.7242252 58.4263125,69.4598355 C28.9829222,113.195446 35.3232132,149.820367 68.5300443,172.170778 Z" id="Shape"></path>
                    </g>
                </g>
            </g>
        </g>
    </g>
</svg>