<svg xmlns="http://www.w3.org/2000/svg" width="1581" height="856"><g fill="none" fill-rule="evenodd"><path fill="#3D70B2" d="M0 1h1581v855H0z"/><g stroke="#0B21A8"><path d="M97.3 307.07c27.19 14.46 52 10.25 75.64-7.49l-17.81-30c-11.21 10.32-25.91 15.93-41.84 7.46-18.91-10.05-24.33-30.08-11.31-54.57l13.26-24.94c13-24.5 32.66-31.2 51.57-21.14 15.93 8.47 19.17 21.33 16.13 36.28l35.88-.38c2.43-30.7-8.83-51.54-36-66-39.93-21.23-81-5.95-109 46.61S57.37 285.84 97.3 307.07z" opacity=".3"/><path d="M70.82 292.99c27.19 14.46 52 10.25 75.64-7.49l-17.81-30c-11.21 10.32-25.91 15.93-41.84 7.46-18.91-10.05-24.33-30.08-11.31-54.57l13.26-24.94c13-24.5 32.66-31.2 51.57-21.14 15.93 8.47 19.17 21.33 16.13 36.28l35.88-.35c2.43-30.7-8.83-51.54-36-66-39.93-21.23-81-5.95-109 46.61s-16.46 92.91 23.48 114.14z" opacity=".1"/><path d="M117.99 318.08c27.19 14.46 52 10.25 75.64-7.49l-17.81-30c-11.21 10.32-25.91 15.93-41.84 7.46-18.91-10.05-24.33-30.08-11.31-54.57l13.26-24.94c13-24.5 32.66-31.2 51.57-21.14 15.93 8.47 19.17 21.33 16.13 36.28l35.88-.35c2.43-30.7-8.83-51.54-36-66-39.93-21.23-81-5.95-109 46.61s-16.45 92.9 23.48 114.14z"/></g><g stroke="#0B21A8" stroke-width="2"><path d="M53.8435 665.3264l135.3596-54.6888 54.6888 135.3596-135.3596 54.6888z"/><path d="M28.6 656.3268l135.3595-54.6888 54.6888 135.3596-135.3596 54.6888z" opacity=".3"/><path d="M1.3073 648.1585l135.3595-54.6888 54.6889 135.3596L55.996 783.518z" opacity=".1"/></g><g stroke="#0B21A8"><path stroke-width="2" d="M1036.5988 253.9113l134.8448-57.2382 57.2382 134.8448-134.8447 57.2382z"/><path stroke-width="2" d="M1045.1902 228.4305l134.8447-57.2382 57.2382 134.8447-134.8447 57.2382z" opacity=".3"/><path stroke-width="1.9985" d="M1052.2449 201.6052l134.7708-57.1311 57.1311 134.7708-134.7708 57.1311z" opacity=".1"/></g><g stroke="#0B21A8" stroke-width="2"><path d="M1220.76 668.6425l129.0017-57.4353 57.4353 129.0017-129.0017 57.4353z"/><path d="M1253.4022 679.6456l129.0018-57.4353 57.4353 129.0017-129.0018 57.4353z" opacity=".3"/><path d="M1293.2513 694.2357l129.0017-57.4352 57.4353 129.0017-129.0017 57.4353z" opacity=".1"/></g><g stroke="#0B21A8"><path stroke-width="2" d="M326.969 218.82l89.4722-127.7795 127.7795 89.4722-89.4721 127.7795z"/><path stroke-width="2" d="M324.2812 171.2718l89.4722-127.7795 127.7795 89.4722-89.4722 127.7795z" opacity=".3"/><path stroke-width="1.9973" d="M309.8023 129.7689L398.7166 1.8571l127.9118 88.9143-88.9143 127.9118z" opacity=".1"/></g><g stroke="#0B21A8" stroke-width="2" transform="translate(195 235)"><circle cx="135.0734" cy="108.6962" r="65.56" transform="rotate(-19 135.0734 108.6962)"/><circle cx="109.6513" cy="96.2977" r="65.56" opacity=".3" transform="rotate(-19 109.6513 96.2977)"/><circle cx="84.2292" cy="83.8992" r="65.56" opacity=".1" transform="rotate(-19 84.2292 83.8992)"/></g><g stroke="#0B21A8" stroke-width="2"><path d="M664.58 378.77l-163.43-31.24L610.9 221.28l53.68 157.49z"/><path d="M692.39 367.28l-163.42-31.23L638.72 209.8z" opacity=".3"/><path d="M725.64 351.6l-163.42-31.23 109.75-126.25z" opacity=".1"/></g><g stroke="#0B21A8" stroke-width="2"><path d="M74.92 511.53l11.09-166.01 138.68 93.54z"/><path d="M89.71 537.74l11.09-166.01 138.68 93.54z" opacity=".3"/><path d="M109.33 568.83l11.08-166.01 138.69 93.54z" opacity=".1"/></g><g stroke="#0B21A8" stroke-width="2"><path d="M1140.96 535.62l77.65-147.15 88.64 141.86-166.29 5.29z"/><path d="M1143.81 565.58l77.65-147.15 88.65 141.86-166.3 5.29z" opacity=".3"/><path d="M1149.08 601.96l77.65-147.15 88.65 141.86-166.3 5.29z" opacity=".1"/></g><g stroke="#0B21A8" stroke-width="2"><path d="M246.65 551.67l60.69-50.93 74.44 27.1 13.76 78.02-60.69 50.93-74.45-27.1-13.75-78.02z"/><path d="M286.13 543.09l60.69-50.93 74.45 27.1 13.76 78.02-60.69 50.92-74.45-27.09-13.76-78.02z" opacity=".3"/><path d="M324 528.85l60.69-50.92 74.45 27.09 13.75 78.02-60.69 50.93-74.45-27.1z" opacity=".1"/></g><g stroke="#0B21A8" stroke-width="2"><path d="M1062.61 674.33h-82.18l-41.09-71.17 41.09-71.17h82.18l41.09 71.17z"/><path d="M1025.51 654.82h-82.18l-41.09-71.17 41.09-71.17h82.18l41.09 71.17z" opacity=".3"/><path d="M985.93 640.88h-82.18l-41.09-71.17 41.09-71.17h82.18l41.1 71.17z" opacity=".1"/></g><g stroke="#0B21A8" stroke-width="2"><path d="M753.93 91.33h99.99l49.99 86.59-49.99 86.59h-99.99l-50-86.59z"/><path d="M799.07 115.06h99.98l50 86.6-50 86.59h-99.98l-50-86.59z" opacity=".3"/><path d="M843.05 122.65h99.98l50 86.59-50 86.59h-99.98l-50-86.59z" opacity=".1"/></g><g stroke="#0B21A8"><path d="M563.82 785.63c27.68-13.5 38.88-36.08 38.4-65.59l-34.77-3.24c1.76 15.14-2.34 30.33-18.56 38.24-19.24 9.39-38.64 2-50.8-22.93l-12.38-25.39c-12.16-24.94-6-44.76 13.21-54.15 16.22-7.91 28.53-3 38.83 8.28l20.81-29.23c-23.41-20-46.89-23.15-74.57-9.65-40.65 19.83-52.44 62.06-26.35 115.56 26.09 53.5 65.55 67.92 106.18 48.1z" opacity=".3"/><path d="M536.88 798.78c27.68-13.5 38.88-36.08 38.4-65.59l-34.77-3.24c1.76 15.14-2.34 30.33-18.56 38.24-19.24 9.39-38.64 2-50.8-22.93l-12.33-25.41c-12.16-24.94-6-44.76 13.21-54.15 16.22-7.91 28.53-3 38.83 8.28l20.81-29.23c-23.41-20-46.89-23.15-74.57-9.65-40.65 19.83-52.44 62.06-26.35 115.56 26.09 53.5 65.48 67.94 106.13 48.12z" opacity=".05"/><path d="M584.9 775.35c27.68-13.5 38.88-36.08 38.4-65.59l-34.77-3.24c1.76 15.14-2.34 30.33-18.56 38.24-19.24 9.39-38.64 2-50.8-22.93l-12.35-25.4c-12.16-24.94-6-44.76 13.21-54.15 16.22-7.91 28.53-3 38.83 8.28l20.81-29.23c-23.41-20-46.89-23.15-74.57-9.65-40.68 19.83-52.47 62.06-26.38 115.51s65.53 68 106.18 48.16z"/></g><g stroke="#0B21A8"><path d="M1374.96 529.33c25.53 17.22 50.69 15.63 76 .46l-14.58-31.74c-12.23 9.09-27.43 13.14-42.39 3-17.75-12-21.06-32.46-5.54-55.46l15.8-23.42c15.51-23 35.74-27.61 53.49-15.64 15 10.09 16.84 23.22 12.25 37.77l35.72 3.4c5.62-30.28-3.4-52.18-28.92-69.4-37.5-25.29-80-14.39-113.25 35s-26.08 90.74 11.42 116.03z" opacity=".3"/><path d="M1350.09 512.56c25.53 17.22 50.69 15.63 76 .46l-14.58-31.74c-12.23 9.09-27.43 13.14-42.39 3-17.75-12-21.06-32.46-5.54-55.46l15.8-23.42c15.51-23 35.74-27.61 53.49-15.64 15 10.09 16.84 23.22 12.25 37.77l35.72 3.4c5.62-30.28-3.4-52.18-28.92-69.4-37.5-25.29-80-14.39-113.25 35s-26.07 90.73 11.42 116.03z" opacity=".05"/><path d="M1394.39 542.43c25.53 17.22 50.69 15.63 76 .46l-14.57-31.7c-12.23 9.09-27.43 13.14-42.39 3-17.75-12-21.06-32.46-5.54-55.46l15.8-23.42c15.51-23 35.74-27.61 53.49-15.64 15 10.09 16.84 23.22 12.25 37.77l35.72 3.4c5.62-30.28-3.4-52.18-28.92-69.4-37.5-25.29-80-14.39-113.25 35s-26.09 90.75 11.41 115.99z"/></g><g stroke="#0B21A8" stroke-width="2" transform="translate(1265 126)"><circle cx="135.2547" cy="84.4639" r="79.61" transform="rotate(-87 135.2547 84.464)"/><circle cx="109.7276" cy="107.4416" r="79.61" opacity=".3" transform="rotate(-87 109.7276 107.4416)"/><circle cx="84.1999" cy="130.4293" r="79.61" opacity=".1" transform="rotate(-87 84.2 130.4293)"/></g><g stroke="#0B21A8" stroke-width="2.0085" transform="translate(634 548)"><circle cx="158.5643" cy="132.3891" r="79.9476" transform="rotate(-15.005 158.5643 132.3891)"/><circle cx="128.6726" cy="115.1892" r="79.9476" opacity=".3" transform="rotate(-15.005 128.6726 115.1892)"/><circle cx="98.8006" cy="97.9867" r="79.9476" opacity=".1" transform="rotate(-15.005 98.8006 97.9867)"/></g></g></svg>