<svg xmlns="http://www.w3.org/2000/svg" width="1569" height="829"><g fill="none" fill-rule="evenodd"><path fill="#B9CBB7" fill-rule="nonzero" d="M-1-7h1581v855H-1z"/><path stroke="#5FA45A" stroke-dasharray="10,10,10,10,10,10" stroke-width="3" d="M2744 250.4c0 76-73.1 137.7-163.3 137.7-90.2 0-163.3-61.6-163.3-137.7v-2.8c0-76-73.1-137.7-163.3-137.7-90.2 0-163.3 61.6-163.3 137.7v2.8c0 76-73.1 137.7-163.3 137.7-90.2 0-163.3-61.6-163.3-137.7v-2.8c0-76-73.1-137.7-163.3-137.7-90.2 0-163.3 61.6-163.3 137.7v2.8c0 76-73.1 137.7-163.3 137.7-90.2 0-163.3-61.6-163.3-137.7v-2.8c0-76-73.1-137.7-163.3-137.7-90.2 0-163.3 61.6-163.3 137.7v2.8c0 76-73.1 137.7-163.3 137.7-90.2 0-163.3-61.6-163.3-137.7v-2.8c0-76-73.1-137.7-163.3-137.7-90.2 0-163.3 61.6-163.3 137.7v2.8c0 76-73.1 137.7-163.3 137.7-90.2 0-163.3-61.6-163.3-137.7v-2.8c0-76-73.1-137.7-163.3-137.7-90.2 0-163.3 61.6-163.3 137.7v2.8c0 76-73.1 137.7-163.3 137.7-90.2 0-163.7-61.7-163.7-137.7v-2.8c0-76-73.1-137.7-163.3-137.7-90.2 0-163.3 61.6-163.3 137.7M2744 592.2c0 76-73.1 137.7-163.3 137.7-90.2 0-163.3-61.6-163.3-137.7v-2.8c0-76-73.1-137.7-163.3-137.7-90.2 0-163.3 61.6-163.3 137.7v2.8c0 76-73.1 137.7-163.3 137.7-90.2 0-163.3-61.6-163.3-137.7v-2.8c0-76-73.1-137.7-163.3-137.7-90.2 0-163.3 61.6-163.3 137.7v2.8c0 76-73.1 137.7-163.3 137.7-90.2 0-163.3-61.6-163.3-137.7v-2.8c0-76-73.1-137.7-163.3-137.7-90.2 0-163.3 61.6-163.3 137.7v2.8c0 76-73.1 137.7-163.3 137.7-90.2 0-163.3-61.6-163.3-137.7v-2.8c0-76-73.1-137.7-163.3-137.7-90.2 0-163.3 61.6-163.3 137.7v2.8c0 76-73.1 137.7-163.3 137.7-90.2 0-163.3-61.6-163.3-137.7v-2.8c0-76-73.1-137.7-163.3-137.7-90.2 0-163.3 61.6-163.3 137.7v2.8c0 76-73.1 137.7-163.3 137.7-90.2 0-163.7-61.7-163.7-137.7v-2.8c0-76-73.1-137.7-163.3-137.7-90.2 0-163.3 61.6-163.3 137.7"/><g fill-rule="nonzero"><path fill="#B9CBB7" d="M237.2 57.9H359v104H237.2z"/><g fill="#5FA45A"><path d="M329.7 148.4h-22.3v-22.3h22.3v22.3zm-19.3-3h16.3v-16.3h-16.3v16.3z"/><path d="M321.2 133.67h-4.8v-4.8h4.8zM309.7 148.4h-22.3v-22.3h22.3v22.3zm-19.3-3h16.3v-16.3h-16.3v16.3z"/><path d="M301.2 133.67h-4.8v-4.8h4.8zM308.7 127.4h-22.3v-22.3h22.3v22.3zm-19.3-3h16.3v-16.3h-16.3v16.3z"/><path d="M300.2 112.67h-4.8v-4.8h4.8z"/><g><path d="M288.7 127.4h-22.3v-22.3h22.3v22.3zm-19.3-3h16.3v-16.3h-16.3v16.3z"/><path d="M280.2 112.67h-4.8v-4.8h4.8z"/></g><g><path d="M288.7 148.4h-22.3v-22.3h22.3v22.3zm-19.3-3h16.3v-16.3h-16.3v16.3z"/><path d="M280.2 133.67h-4.8v-4.8h4.8z"/></g><g><path d="M347.9 148.5h-99.7V80.9l48.8-9.6 50.8 9.6v67.6h.1zm-96.7-3h93.7V83.4l-47.8-9-45.9 9v62.1z"/><path d="M237.5 145.5h121v3h-121z"/><path d="M340.1 148.4h-84V91.5h84v56.9zm-81.1-3h78V94.5h-78v50.9zM285 83.2h26v3h-26z"/></g></g></g><g fill-rule="nonzero"><path fill="#B9CBB7" d="M237.2 399.7H359v104H237.2z"/><g fill="#5FA45A"><path d="M329.7 490.2h-22.3v-22.3h22.3v22.3zm-19.3-3h16.3v-16.3h-16.3v16.3z"/><path d="M321.2 475.51h-4.8v-4.8h4.8zM309.7 490.2h-22.3v-22.3h22.3v22.3zm-19.3-3h16.3v-16.3h-16.3v16.3z"/><path d="M301.2 475.51h-4.8v-4.8h4.8zM308.7 469.2h-22.3v-22.3h22.3v22.3zm-19.3-3h16.3v-16.3h-16.3v16.3z"/><path d="M300.2 454.51h-4.8v-4.8h4.8z"/><g><path d="M288.7 469.2h-22.3v-22.3h22.3v22.3zm-19.3-3h16.3v-16.3h-16.3v16.3z"/><path d="M280.2 454.51h-4.8v-4.8h4.8z"/></g><g><path d="M288.7 490.2h-22.3v-22.3h22.3v22.3zm-19.3-3h16.3v-16.3h-16.3v16.3z"/><path d="M280.2 475.51h-4.8v-4.8h4.8z"/></g><g><path d="M347.9 490.3h-99.7v-67.6l48.8-9.6 50.8 9.6v67.6h.1zm-96.7-3h93.7v-62.2l-47.8-9-45.9 9v62.2z"/><path d="M237.5 487.3h121v3h-121z"/><path d="M340.1 490.2h-84v-56.9h84v56.9zm-81.1-3h78v-50.9h-78v50.9zM285 425h26v3h-26z"/></g></g></g><g fill-rule="nonzero"><path fill="#B9CBB7" d="M562.5 328.7h121.8v104H562.5z"/><g fill="#5FA45A"><path d="M655 419.2h-22.3v-22.3H655v22.3zm-19.3-3H652v-16.3h-16.3v16.3z"/><path d="M646.46 404.45h-4.8v-4.8h4.8zM635 419.2h-22.3v-22.3H635v22.3zm-19.3-3H632v-16.3h-16.3v16.3z"/><path d="M626.46 404.45h-4.8v-4.8h4.8zM634 398.2h-22.3v-22.3H634v22.3zm-19.3-3H631v-16.3h-16.3v16.3z"/><path d="M625.46 383.45h-4.8v-4.8h4.8z"/><g><path d="M614 398.2h-22.3v-22.3H614v22.3zm-19.3-3H611v-16.3h-16.3v16.3z"/><path d="M605.46 383.45h-4.8v-4.8h4.8z"/></g><g><path d="M614 419.2h-22.3v-22.3H614v22.3zm-19.3-3H611v-16.3h-16.3v16.3z"/><path d="M605.46 404.45h-4.8v-4.8h4.8z"/></g><g><path d="M673.2 419.3h-99.7v-67.6l48.8-9.6 50.8 9.6v67.6h.1zm-96.7-3h93.7v-62.2l-47.8-9-45.9 9v62.2z"/><path d="M562.8 416.3h121v3h-121z"/><path d="M665.4 419.2h-84v-56.9h84v56.9zm-81.1-3h78v-50.9h-78v50.9zM610.3 354h26v3h-26z"/></g></g></g><g fill-rule="nonzero"><path fill="#B9CBB7" d="M562.5 670.5h121.8v104H562.5z"/><g fill="#5FA45A"><path d="M655 761h-22.3v-22.3H655V761zm-19.3-3H652v-16.3h-16.3V758z"/><path d="M646.46 746.3h-4.8v-4.8h4.8zM635 761h-22.3v-22.3H635V761zm-19.3-3H632v-16.3h-16.3V758z"/><path d="M626.46 746.3h-4.8v-4.8h4.8zM634 740h-22.3v-22.3H634V740zm-19.3-3H631v-16.3h-16.3V737z"/><path d="M625.46 725.3h-4.8v-4.8h4.8z"/><g><path d="M614 740h-22.3v-22.3H614V740zm-19.3-3H611v-16.3h-16.3V737z"/><path d="M605.46 725.3h-4.8v-4.8h4.8z"/></g><g><path d="M614 761h-22.3v-22.3H614V761zm-19.3-3H611v-16.3h-16.3V758z"/><path d="M605.46 746.3h-4.8v-4.8h4.8z"/></g><g><path d="M673.2 761.1h-99.7v-67.6l48.8-9.6 50.8 9.6v67.6h.1zm-96.7-3h93.7v-62.2l-47.8-9-45.9 9v62.2z"/><path d="M562.8 758.1h121v3h-121z"/><path d="M665.4 761h-84v-56.9h84V761zm-81.1-3h78v-50.9h-78V758zM610.3 695.8h26v3h-26z"/></g></g></g><g fill-rule="nonzero"><path fill="#B9CBB7" d="M883.5 48.9h121.8v104H883.5z"/><g fill="#5FA45A"><path d="M976 139.4h-22.3v-22.3H976v22.3zm-19.3-3H973v-16.3h-16.3v16.3z"/><path d="M967.46 124.67h-4.8v-4.8h4.8zM956 139.4h-22.3v-22.3H956v22.3zm-19.3-3H953v-16.3h-16.3v16.3z"/><path d="M947.46 124.67h-4.8v-4.8h4.8zM955 118.4h-22.3V96.1H955v22.3zm-19.3-3H952V99.1h-16.3v16.3z"/><path d="M946.46 103.67h-4.8v-4.8h4.8z"/><g><path d="M935 118.4h-22.3V96.1H935v22.3zm-19.3-3H932V99.1h-16.3v16.3z"/><path d="M926.46 103.67h-4.8v-4.8h4.8z"/></g><g><path d="M935 139.4h-22.3v-22.3H935v22.3zm-19.3-3H932v-16.3h-16.3v16.3z"/><path d="M926.46 124.67h-4.8v-4.8h4.8z"/></g><g><path d="M994.2 139.5h-99.7V71.9l48.8-9.6 50.8 9.6v67.6h.1zm-96.7-3h93.7V74.4l-47.8-9-45.9 9v62.1z"/><path d="M883.8 136.5h121v3h-121z"/><path d="M986.4 139.4h-84V82.5h84v56.9zm-81.1-3h78V85.5h-78v50.9zM931.3 74.2h26v3h-26z"/></g></g></g><g fill-rule="nonzero"><path fill="#B9CBB7" d="M883.5 390.7h121.8v104H883.5z"/><g fill="#5FA45A"><path d="M976 481.2h-22.3v-22.3H976v22.3zm-19.3-3H973v-16.3h-16.3v16.3z"/><path d="M967.46 466.51h-4.8v-4.8h4.8zM956 481.2h-22.3v-22.3H956v22.3zm-19.3-3H953v-16.3h-16.3v16.3z"/><path d="M947.46 466.51h-4.8v-4.8h4.8zM955 460.2h-22.3v-22.3H955v22.3zm-19.3-3H952v-16.3h-16.3v16.3z"/><path d="M946.46 445.51h-4.8v-4.8h4.8z"/><g><path d="M935 460.2h-22.3v-22.3H935v22.3zm-19.3-3H932v-16.3h-16.3v16.3z"/><path d="M926.46 445.51h-4.8v-4.8h4.8z"/></g><g><path d="M935 481.2h-22.3v-22.3H935v22.3zm-19.3-3H932v-16.3h-16.3v16.3z"/><path d="M926.46 466.51h-4.8v-4.8h4.8z"/></g><g><path d="M994.2 481.3h-99.7v-67.6l48.8-9.6 50.8 9.6v67.6h.1zm-96.7-3h93.7v-62.2l-47.8-9-45.9 9v62.2z"/><path d="M883.8 478.3h121v3h-121z"/><path d="M986.4 481.2h-84v-56.9h84v56.9zm-81.1-3h78v-50.9h-78v50.9zM931.3 416h26v3h-26z"/></g></g></g><g fill-rule="nonzero"><path fill="#B9CBB7" d="M1225 328.7h121.8v104H1225z"/><g fill="#5FA45A"><path d="M1317.5 419.2h-22.3v-22.3h22.3v22.3zm-19.3-3h16.3v-16.3h-16.3v16.3z"/><path d="M1308.99 404.45h-4.8v-4.8h4.8zM1297.5 419.2h-22.3v-22.3h22.3v22.3zm-19.3-3h16.3v-16.3h-16.3v16.3z"/><path d="M1288.99 404.45h-4.8v-4.8h4.8zM1296.5 398.2h-22.3v-22.3h22.3v22.3zm-19.3-3h16.3v-16.3h-16.3v16.3z"/><path d="M1287.99 383.45h-4.8v-4.8h4.8z"/><g><path d="M1276.5 398.2h-22.3v-22.3h22.3v22.3zm-19.3-3h16.3v-16.3h-16.3v16.3z"/><path d="M1267.99 383.45h-4.8v-4.8h4.8z"/></g><g><path d="M1276.5 419.2h-22.3v-22.3h22.3v22.3zm-19.3-3h16.3v-16.3h-16.3v16.3z"/><path d="M1267.99 404.45h-4.8v-4.8h4.8z"/></g><g><path d="M1335.7 419.3H1236v-67.6l48.8-9.6 50.8 9.6v67.6h.1zm-96.7-3h93.7v-62.2l-47.8-9-45.9 9v62.2z"/><path d="M1225.3 416.3h121v3h-121z"/><path d="M1327.9 419.2h-84v-56.9h84v56.9zm-81.1-3h78v-50.9h-78v50.9zM1272.8 354h26v3h-26z"/></g></g></g><g fill-rule="nonzero"><path fill="#B9CBB7" d="M1225 670.5h121.8v104H1225z"/><g fill="#5FA45A"><path d="M1317.5 761h-22.3v-22.3h22.3V761zm-19.3-3h16.3v-16.3h-16.3V758z"/><path d="M1308.99 746.3h-4.8v-4.8h4.8zM1297.5 761h-22.3v-22.3h22.3V761zm-19.3-3h16.3v-16.3h-16.3V758z"/><path d="M1288.99 746.3h-4.8v-4.8h4.8zM1296.5 740h-22.3v-22.3h22.3V740zm-19.3-3h16.3v-16.3h-16.3V737z"/><path d="M1287.99 725.3h-4.8v-4.8h4.8z"/><g><path d="M1276.5 740h-22.3v-22.3h22.3V740zm-19.3-3h16.3v-16.3h-16.3V737z"/><path d="M1267.99 725.3h-4.8v-4.8h4.8z"/></g><g><path d="M1276.5 761h-22.3v-22.3h22.3V761zm-19.3-3h16.3v-16.3h-16.3V758z"/><path d="M1267.99 746.3h-4.8v-4.8h4.8z"/></g><g><path d="M1335.7 761.1H1236v-67.6l48.8-9.6 50.8 9.6v67.6h.1zm-96.7-3h93.7v-62.2l-47.8-9-45.9 9v62.2z"/><path d="M1225.3 758.1h121v3h-121z"/><path d="M1327.9 761h-84v-56.9h84V761zm-81.1-3h78v-50.9h-78V758zM1272.8 695.8h26v3h-26z"/></g></g></g></g></svg>