<svg xmlns="http://www.w3.org/2000/svg" width="1569" height="798" version="1"><g fill="none" fill-rule="nonzero"><rect height="100%" width="100%" fill="#271924"/><path fill="#A58037" d="M222 114h-55s-1 34 23 34l3 3h3l3-3c24 0 23-34 23-34z"/><path fill="#8C6611" d="M226 110c-1-8-6-23-31-23s-30 15-30 23c-1 3 1 5 4 5h53c2 0 4-2 4-5z"/><path fill="#8C6611" d="M191 88h8s-3-6 4-7v-5s-12-1-12 12zM190 148l3 3h3l3-3c8 0 13-4 17-8l-32-25-17-1s-1 34 23 34z"/><path fill="#A58037" d="M184 115l-17-14c-2 4-2 7-2 9-1 3 1 5 4 5h15zM523 270h-55s-2 34 23 34l3 3h3l3-3c24 0 23-34 23-34z"/><path fill="#8C6611" d="M527 266c-1-8-6-23-31-23s-30 15-30 23c-1 3 1 5 4 5h53c2 0 4-2 4-5z"/><path fill="#8C6611" d="M492 244h8s-3-6 4-7v-5s-12-1-12 12zM491 304l3 3h3l3-3c8 0 13-4 16-8l-31-25-17-1s-1 34 23 34z"/><path fill="#A58037" d="M485 271l-17-14c-2 4-2 7-2 9-1 3 1 5 4 5h15zM222 388h-55s-1 34 23 34l3 3h3l3-3c24 0 23-34 23-34z"/><path fill="#8C6611" d="M226 384c-1-8-6-23-31-23s-30 15-30 23c-1 3 1 5 4 5h53c2 0 4-2 4-5z"/><path fill="#8C6611" d="M191 362h8s-3-6 4-7v-5s-12-1-12 12zM190 422l3 3h3l3-3c8 0 13-4 17-8l-32-25-17-1s-1 34 23 34z"/><path fill="#A58037" d="M184 389l-17-14c-2 4-2 7-2 9-1 3 1 5 4 5h15zM461 38h-55s-1 34 23 34l3 3h3l3-3c24 0 23-34 23-34z"/><path fill="#8C6611" d="M465 34c-1-8-6-23-31-23s-30 15-30 23c-1 3 1 5 4 5h53c2 0 4-2 4-5z"/><path fill="#8C6611" d="M430 12h8s-3-6 4-7V0s-12-1-12 12zM429 72l3 3h3l3-3c8 0 13-3 16-8l-31-25-17-1s-2 34 23 34z"/><path fill="#A58037" d="M423 39l-17-14c-2 4-2 7-2 9-1 3 1 5 4 5h15zM937 190h-55s-1 34 23 34l3 3h3l3-3c24 0 23-34 23-34z"/><path fill="#8C6611" d="M941 186c-1-8-6-23-31-23s-30 15-30 23c-1 3 1 5 4 5h53c2 0 4-2 4-5z"/><path fill="#8C6611" d="M906 164h8s-3-6 4-7v-5s-12-1-12 12zM905 224l3 3h3l3-3c8 0 13-4 16-8l-31-25-17-1s-1 34 23 34z"/><path fill="#A58037" d="M899 191l-17-14c-2 4-2 7-2 9-1 3 1 5 4 5h15zM1621 679h-55s-1 34 23 34l3 3h3l3-3c24 0 23-34 23-34z"/><path fill="#8C6611" d="M1625 675c-1-8-6-23-31-23s-30 15-30 23c-1 3 1 5 4 5h53c2 0 4-2 4-5z"/><path fill="#8C6611" d="M1589 713l3 3h3l3-3c8 0 13-3 17-8l-32-25-17-1s-1 34 23 34z"/><path fill="#A58037" d="M1583 680l-17-14c-2 4-2 7-2 9-1 3 1 5 4 5h15zM968 405h-55s-1 34 23 34l3 3h3l3-3c24 0 23-34 23-34z"/><path fill="#8C6611" d="M972 401c-1-8-6-23-31-23s-30 15-30 23c-1 3 1 5 4 5h53c2 0 4-2 4-5z"/><path fill="#8C6611" d="M937 379h8s-3-6 4-7v-5s-12-1-12 12zM936 439l3 3h3l3-3c8 0 13-4 16-8l-31-25-17-1s-1 34 23 34z"/><path fill="#A58037" d="M930 406l-17-14c-2 4-2 7-2 9-1 3 1 5 4 5h15z"/><g><path fill="#A58037" d="M824 464h-55s-1 34 23 34l3 3h3l3-3c24 0 23-34 23-34z"/><path fill="#8C6611" d="M828 460c-1-8-6-23-31-23s-30 15-30 23c-1 3 1 5 4 5h53c2 0 4-2 4-5z"/><path fill="#8C6611" d="M793 438h8s-3-6 4-7v-5s-12-1-12 12zM792 498l3 3h3l3-3c8 0 13-4 16-8l-31-25-17-1s-1 34 23 34z"/><path fill="#A58037" d="M786 465l-17-14c-2 4-2 7-2 9-1 3 1 5 4 5h15z"/></g><g><path fill="#A58037" d="M585 544h-55s-1 34 23 34l3 3h3l3-3c24 0 23-34 23-34z"/><path fill="#8C6611" d="M589 540c-1-8-6-23-31-23s-30 15-30 23c-1 3 1 5 4 5h53c2 0 4-2 4-5z"/><path fill="#8C6611" d="M554 518h8s-3-6 4-7v-5s-12-1-12 12zM553 578l3 3h3l3-3c8 0 13-3 16-8l-31-25-17-1s-1 34 23 34z"/><path fill="#A58037" d="M547 545l-17-14c-2 4-2 7-2 9-1 3 1 5 4 5h15z"/></g><g><path fill="#A58037" d="M361 232h-55s-1 34 23 34l3 3h3l3-3c24 0 23-34 23-34z"/><path fill="#8C6611" d="M365 228c-1-8-6-23-31-23s-30 15-30 23c-1 3 1 5 4 5h53c2 0 4-2 4-5z"/><path fill="#8C6611" d="M330 206h8s-3-6 4-7v-5s-12-1-12 12zM329 266l3 3h3l3-3c8 0 13-4 16-8l-31-25-17-1s-2 34 23 34z"/><path fill="#A58037" d="M323 233l-17-14c-2 4-2 7-2 9-1 3 1 5 4 5h15z"/></g><g><path fill="#A58037" d="M662 388h-55s-1 34 23 34l3 3h3l3-3c24 0 23-34 23-34z"/><path fill="#8C6611" d="M666 384c-1-8-6-23-31-23s-30 15-30 23c-1 3 1 5 4 5h53c2 0 4-2 4-5z"/><path fill="#8C6611" d="M631 362h8s-3-6 4-7v-5s-12-1-12 12zM630 422l3 3h3l3-3c8 0 13-4 16-8l-31-25-17-1s-1 34 23 34z"/><path fill="#A58037" d="M624 389l-17-14c-2 4-2 7-2 9-1 3 1 5 4 5h15z"/></g><g><path fill="#A58037" d="M361 506h-55s-1 34 23 34l3 3h3l3-3c24 0 23-34 23-34z"/><path fill="#8C6611" d="M365 502c-1-8-6-23-31-23s-30 15-30 23c-1 3 1 5 4 5h53c2 0 4-2 4-5z"/><path fill="#8C6611" d="M330 480h8s-3-6 4-7v-5s-12-1-12 12zM329 540l3 3h3l3-3c8 0 13-3 16-8l-31-25-17-1s-2 34 23 34z"/><path fill="#A58037" d="M323 507l-17-14c-2 4-2 7-2 9-1 3 1 5 4 5h15z"/></g><g><path fill="#A58037" d="M693 152h-55s-1 34 23 34l3 3h3l3-3c24 0 23-34 23-34z"/><path fill="#8C6611" d="M697 148c-1-8-6-23-31-23s-30 15-30 23c-1 3 1 5 4 5h53c2 0 4-2 4-5z"/><path fill="#8C6611" d="M662 126h8s-3-6 4-7v-5s-12-1-12 12zM661 186l3 3h3l3-3c8 0 13-4 16-8l-31-25-17-1s-1 34 23 34z"/><path fill="#A58037" d="M655 153l-17-14c-2 4-2 7-2 9-1 3 1 5 4 5h15z"/></g><g><path fill="#A58037" d="M1377 641h-55s-1 34 23 34l3 3h3l3-3c24 0 23-34 23-34z"/><path fill="#8C6611" d="M1381 637c-1-8-6-23-31-23s-30 15-30 23c-1 3 1 5 4 5h53c2 0 4-2 4-5z"/><path fill="#8C6611" d="M1346 615h8s-3-6 4-7v-5s-12-1-12 12zM1345 675l3 3h3l3-3c8 0 13-3 17-8l-32-25-17-1s-1 34 23 34z"/><path fill="#A58037" d="M1339 642l-17-14c-2 4-2 7-2 9-1 3 1 5 4 5h15z"/></g><g><path fill="#A58037" d="M1076 308h-55s-1 34 23 34l3 3h3l3-3c24 0 23-34 23-34z"/><path fill="#8C6611" d="M1080 304c-1-8-6-23-31-23s-30 15-30 23c-1 3 1 5 4 5h53c2 0 4-2 4-5z"/><path fill="#8C6611" d="M1045 282h8s-3-6 4-7v-5s-12-1-12 12zM1044 342l3 3h3l3-3c8 0 13-4 17-8l-32-25-17-1s-1 34 23 34z"/><path fill="#A58037" d="M1038 309l-17-14c-2 4-2 7-2 9-1 3 1 5 4 5h15z"/></g><g><path fill="#A58037" d="M1107 523h-55s-1 34 23 34l3 3h3l3-3c24 0 23-34 23-34z"/><path fill="#8C6611" d="M1111 519c-1-8-6-23-31-23s-30 15-30 23c-1 3 1 5 4 5h53c2 0 4-2 4-5z"/><path fill="#8C6611" d="M1076 497h8s-3-6 4-7v-5s-12-1-12 12zM1075 557l3 3h3l3-3c8 0 13-3 17-8l-32-25-17-1s-1 34 23 34z"/><path fill="#A58037" d="M1069 524l-17-14c-2 4-2 7-2 9-1 3 1 5 4 5h15z"/></g><g><path fill="#A58037" d="M724 662h-55s-1 34 23 34l3 3h3l3-3c24 0 23-34 23-34z"/><path fill="#8C6611" d="M728 658c-1-8-6-23-31-23s-30 15-30 23c-1 3 1 5 4 5h53c2 0 4-2 4-5z"/><path fill="#8C6611" d="M693 636h8s-3-6 4-7v-5s-12-1-12 12zM692 696l3 3h3l3-3c8 0 13-3 16-8l-31-25-17-1s-1 34 23 34z"/><path fill="#A58037" d="M686 663l-17-14c-2 4-2 7-2 9-1 3 1 5 4 5h15z"/></g><g><path fill="#A58037" d="M554 152h-55s-2 34 23 34l3 3h3l3-3c24 0 23-34 23-34z"/><path fill="#8C6611" d="M558 148c-1-8-6-23-31-23s-30 15-30 23c-1 3 1 5 4 5h53c2 0 4-2 4-5z"/><path fill="#8C6611" d="M523 126h8s-3-6 4-7v-5s-12-1-12 12zM522 186l3 3h3l3-3c8 0 13-4 16-8l-31-25-17-1s-1 34 23 34z"/><path fill="#A58037" d="M516 153l-17-14c-2 4-2 7-2 9-1 3 1 5 4 5h15z"/></g><g><path fill="#A58037" d="M1238 641h-55s-1 34 23 34l3 3h3l3-3c24 0 23-34 23-34z"/><path fill="#8C6611" d="M1242 637c-1-8-6-23-31-23s-30 15-30 23c-1 3 1 5 4 5h53c2 0 4-2 4-5z"/><path fill="#8C6611" d="M1207 615h8s-3-6 4-7v-5s-12-1-12 12zM1206 675l3 3h3l3-3c8 0 13-3 17-8l-32-25-17-1s-1 34 23 34z"/><path fill="#A58037" d="M1200 642l-17-14c-2 4-2 7-2 9-1 3 1 5 4 5h15z"/></g><g><path fill="#A58037" d="M824 308h-55s-1 34 23 34l3 3h3l3-3c24 0 23-34 23-34z"/><path fill="#8C6611" d="M828 304c-1-8-6-23-31-23s-30 15-30 23c-1 3 1 5 4 5h53c2 0 4-2 4-5z"/><path fill="#8C6611" d="M793 282h8s-3-6 4-7v-5s-12-1-12 12zM792 342l3 3h3l3-3c8 0 13-4 16-8l-31-25-17-1s-1 34 23 34z"/><path fill="#A58037" d="M786 309l-17-14c-2 4-2 7-2 9-1 3 1 5 4 5h15z"/></g><g><path fill="#A58037" d="M1508 797h-55s-1 34 23 34l3 3h3l3-3c24 0 23-34 23-34z"/><path fill="#8C6611" d="M1512 793c-1-8-6-23-31-23s-30 15-30 23c-1 3 1 5 4 5h53c2 0 4-2 4-5z"/><path fill="#8C6611" d="M1477 771h8s-3-6 4-7v-5s-12-1-12 12zM1476 831l3 3h3l3-3c8 0 13-3 17-8l-32-25-17-1s-1 34 23 34z"/><path fill="#A58037" d="M1470 798l-17-14c-2 4-2 7-2 9-1 3 1 5 4 5h15z"/></g><g><path fill="#A58037" d="M199 607h-55s-1 34 23 34l3 3h3l3-3c24 0 23-34 23-34z"/><path fill="#8C6611" d="M203 603c-1-8-6-23-31-23s-30 15-30 23c-1 3 1 5 4 5h53c2 0 4-2 4-5z"/><path fill="#8C6611" d="M168 581h8s-3-6 4-7v-5s-12-1-12 12zM167 641l3 3h3l3-3c8 0 13-3 17-8l-32-25-17-1s-1 34 23 34z"/><path fill="#A58037" d="M161 608l-17-14c-2 4-2 7-2 9-1 3 1 5 4 5h15z"/></g><g><path fill="#A58037" d="M523 426h-55s-2 34 23 34l3 3h3l3-3c24 0 23-34 23-34z"/><path fill="#8C6611" d="M527 422c-1-8-6-23-31-23s-30 15-30 23c-1 3 1 5 4 5h53c2 0 4-2 4-5z"/><path fill="#8C6611" d="M492 400h8s-3-6 4-7v-5s-12-1-12 12zM491 460l3 3h3l3-3c8 0 13-4 16-8l-31-25-17-1s-1 34 23 34z"/><path fill="#A58037" d="M485 427l-17-14c-2 4-2 7-2 9-1 3 1 5 4 5h15z"/></g><g><path fill="#A58037" d="M855 72h-55s-1 34 23 34l3 3h3l3-3c24 0 23-34 23-34z"/><path fill="#8C6611" d="M859 68c-1-8-6-23-31-23s-30 15-30 23c-1 3 1 5 4 5h53c2 0 4-2 4-5z"/><path fill="#8C6611" d="M824 46h8s-3-6 4-7v-5s-12-1-12 12zM823 106l3 3h3l3-3c8 0 13-3 16-8l-31-25-17-1s-1 34 23 34z"/><path fill="#A58037" d="M817 73l-17-14c-2 4-2 7-2 9-1 3 1 5 4 5h15z"/></g><g><path fill="#A58037" d="M1539 561h-55s-1 34 23 34l3 3h3l3-3c24 0 23-34 23-34z"/><path fill="#8C6611" d="M1543 557c-1-8-6-23-31-23s-30 15-30 23c-1 3 1 5 4 5h53c2 0 4-2 4-5z"/><path fill="#8C6611" d="M1508 535h8s-3-6 4-7v-5s-12-1-12 12zM1507 595l3 3h3l3-3c8 0 13-3 17-8l-32-25-17-1s-1 34 23 34z"/><path fill="#A58037" d="M1501 562l-17-14c-2 4-2 7-2 9-1 3 1 5 4 5h15z"/></g><g><path fill="#A58037" d="M1238 228h-55s-1 34 23 34l3 3h3l3-3c24 0 23-34 23-34z"/><path fill="#8C6611" d="M1242 224c-1-8-6-23-31-23s-30 15-30 23c-1 3 1 5 4 5h53c2 0 4-2 4-5z"/><path fill="#8C6611" d="M1207 202h8s-3-6 4-7v-5s-12-1-12 12zM1206 262l3 3h3l3-3c8 0 13-4 17-8l-32-25-17-1s-1 34 23 34z"/><path fill="#A58037" d="M1200 229l-17-14c-2 4-2 7-2 9-1 3 1 5 4 5h15z"/></g><g><path fill="#A58037" d="M1269 443h-55s-1 34 23 34l3 3h3l3-3c24 0 23-34 23-34z"/><path fill="#8C6611" d="M1273 439c-1-8-6-23-31-23s-30 15-30 23c-1 3 1 5 4 5h53c2 0 4-2 4-5z"/><path fill="#8C6611" d="M1238 417h8s-3-6 4-7v-5s-12-1-12 12zM1237 477l3 3h3l3-3c8 0 13-4 17-8l-32-25-17-1s-1 34 23 34z"/><path fill="#A58037" d="M1231 444l-17-14c-2 4-2 7-2 9-1 3 1 5 4 5h15z"/></g><g><path fill="#A58037" d="M886 582h-55s-1 34 23 34l3 3h3l3-3c24 0 23-34 23-34z"/><path fill="#8C6611" d="M890 578c-1-8-6-23-31-23s-30 15-30 23c-1 3 1 5 4 5h53c2 0 4-2 4-5z"/><path fill="#8C6611" d="M855 556h8s-3-6 4-7v-5s-12-1-12 12zM854 616l3 3h3l3-3c8 0 13-3 16-8l-31-25-17-1s-1 34 23 34z"/><path fill="#A58037" d="M848 583l-17-14c-2 4-2 7-2 9-1 3 1 5 4 5h15z"/></g><g><path fill="#A58037" d="M343 704h-55s-1 34 23 34l3 3h3l3-3c24 0 23-34 23-34z"/><path fill="#8C6611" d="M347 700c-1-8-6-23-31-23s-30 15-30 23c-1 3 1 5 4 5h53c2 0 4-2 4-5z"/><path fill="#8C6611" d="M312 678h8s-3-6 4-7v-5s-12-1-12 12zM311 738l3 3h3l3-3c8 0 13-3 16-8l-31-25-17-1s-2 34 23 34z"/><path fill="#A58037" d="M305 705l-17-14c-2 4-2 7-2 9-1 3 1 5 4 5h15z"/></g><g><path fill="#A58037" d="M199 763h-55s-1 34 23 34l3 3h3l3-3c24 0 23-34 23-34z"/><path fill="#8C6611" d="M203 759c-1-8-6-23-31-23s-30 15-30 23c-1 3 1 5 4 5h53c2 0 4-2 4-5z"/><path fill="#8C6611" d="M168 737h8s-3-6 4-7v-5s-12-1-12 12zM167 797l3 3h3l3-3c8 0 13-3 17-8l-32-25-17-1s-1 34 23 34z"/><path fill="#A58037" d="M161 764l-17-14c-2 4-2 7-2 9-1 3 1 5 4 5h15z"/></g><g><path fill="#A58037" d="M37 687h-55s-1 34 23 34l3 3h3l3-3c24 0 23-34 23-34z"/><path fill="#8C6611" d="M41 683c-1-8-6-23-31-23s-30 15-30 23c-1 3 1 5 4 5h53c2 0 4-2 4-5z"/><path fill="#8C6611" d="M6 661h8s-3-6 4-7v-5s-12-1-12 12zM5 721l3 3h3l3-3c8 0 13-3 17-8l-32-25-17-1s-1 34 23 34z"/></g><g><path fill="#A58037" d="M451 607h-55s-1 34 23 34l3 3h3l3-3c24 0 23-34 23-34z"/><path fill="#8C6611" d="M455 603c-1-8-6-23-31-23s-30 15-30 23c-1 3 1 5 4 5h53c2 0 4-2 4-5z"/><path fill="#8C6611" d="M420 581h8s-3-6 4-7v-5s-12-1-12 12zM419 641l3 3h3l3-3c8 0 13-3 16-8l-31-25-17-1s-2 34 23 34z"/><path fill="#A58037" d="M413 608l-17-14c-2 4-2 7-2 9-1 3 1 5 4 5h15z"/></g><g><path fill="#A58037" d="M644 742h-55s-1 34 23 34l3 3h3l3-3c24 0 23-34 23-34z"/><path fill="#8C6611" d="M648 738c-1-8-6-23-31-23s-30 15-30 23c-1 3 1 5 4 5h53c2 0 4-2 4-5z"/><path fill="#8C6611" d="M613 716h8s-3-6 4-7v-5s-12-1-12 12zM612 776l3 3h3l3-3c8 0 13-3 16-8l-31-25-17-1s-1 34 23 34z"/><path fill="#A58037" d="M606 743l-17-14c-2 4-2 7-2 9-1 3 1 5 4 5h15z"/></g></g></svg>